<?xml version="1.0" encoding="UTF-8"?>
<svg id="Layer_1" xmlns="http://www.w3.org/2000/svg" viewBox="0 0 453.62 217.31">
  <g>
    <polygon points="126.95 70.81 126.95 118.39 100.24 118.39 100.24 145.54 51.84 145.54 51.84 118.39 24.58 118.39 24.58 70.81 51.84 70.81 51.84 43.72 100.24 43.72 100.24 70.81 126.95 70.81" style="fill: #fff;"/>
    <g>
      <path d="M75.42,117.61c-3.38.9-7.56,1.39-12.06.48,3.89-9.37,8.14-16.51,12.21-21.93,2.17,9.21.43,18.74-.15,21.45Z" style="fill: none;"/>
      <path d="M95.33,103.16c-1.48,2.07-3.22,4.07-5.19,5.93-.23.22-.5.47-.8.74h0c-.31.29-.66.61-1.05.93,0-.01,0-.03,0-.04.7-11.44,9.91-18.03,9.91-18.03-7.33,1.57-14.06,12.39-14.06,12.39-.29-6.04-1.96-10.65-4.24-14.17,7.79-8.52,14.07-10.77,14.39-10.88-5.37.96-11.14,4.3-16.38,8.23-5.81-6.75-13.63-8.24-14-8.3,5.08,2.75,8.23,6.86,10.12,11.39-7.84,6.57-13.69,13.49-13.69,13.49-.13-10.87-6.88-12.57-6.88-12.57,4.85,10.67,2.29,22.19,2.29,22.19-.01.04-.02.08-.03.12-.82-.72-1.67-1.61-2.45-2.69-5.14-7.14-2.46-16.23-1.89-18.18.12-.42.26-.83.41-1.23,1.07-3.05,2.59-5.42,3.74-7.08.17-.25.34-.5.52-.75.04-.05.08-.11.11-.16.12-.16.27-.37.47-.63.1-.14.22-.3.35-.46.13-.17.27-.35.43-.54.13-.17.28-.35.44-.54.19-.24.41-.49.64-.75,0,0,0-.01,0-.01.21-.24.43-.48.67-.74.23-.25.46-.5.69-.74.2-.21.41-.42.62-.63.27-.27.55-.54.84-.81,1.44-1.36,2.94-2.58,4.48-3.68,1.24-.88,2.5-1.67,3.78-2.37,9.29-5.12,19.34-5.57,25.78-.73.67.5,1.3,1.07,1.89,1.69.43.45.83.93,1.18,1.42,5.29,7.15,3.88,18.47-3.08,28.17Z" style="fill: none;"/>
      <path d="M51.79,92.5c.37-.98.81-1.96,1.3-2.93.71-1.41,1.52-2.79,2.44-4.15-1.15,1.66-2.67,4.03-3.74,7.08ZM56.63,83.89c.11-.15.23-.31.35-.46-.13.16-.25.32-.35.46ZM57.84,82.35c.21-.25.43-.5.64-.75-.23.26-.45.52-.64.75ZM88.29,110.73s0,.03,0,.04c.39-.33.74-.64,1.05-.93-.34.31-.69.61-1.04.9Z" style="fill: #ec028d;"/>
      <path d="M101.44,74.99c-.61-1.09-1.36-2.1-2.25-3-1.13-1.15-2.43-2.09-3.86-2.82v-21.8h-39.28v27.62h-27.55v39.27h23.01c.49.73,1.05,1.43,1.67,2.07.86.88,1.83,1.64,2.87,2.26v23.3h39.28v-27.62h27.69v-39.27h-21.58ZM75.42,117.61c-3.38.9-7.56,1.39-12.06.48,3.89-9.37,8.14-16.51,12.21-21.93,2.17,9.21.43,18.74-.15,21.45ZM95.33,103.16c-1.48,2.07-3.22,4.07-5.19,5.93-.23.22-.5.47-.8.74h0c-.31.29-.66.61-1.05.93,0-.01,0-.03,0-.04.7-11.44,9.91-18.03,9.91-18.03-7.33,1.57-14.06,12.39-14.06,12.39-.29-6.04-1.96-10.65-4.24-14.17,7.79-8.52,14.07-10.77,14.39-10.88-5.37.96-11.14,4.3-16.38,8.23-5.81-6.75-13.63-8.24-14-8.3,5.08,2.75,8.23,6.86,10.12,11.39-7.84,6.57-13.69,13.49-13.69,13.49-.13-10.87-6.88-12.57-6.88-12.57,4.85,10.67,2.29,22.19,2.29,22.19-.01.04-.02.08-.03.12-.82-.72-1.67-1.61-2.45-2.69-5.14-7.14-2.46-16.23-1.89-18.18.12-.42.26-.83.41-1.23,1.07-3.05,2.59-5.42,3.74-7.08.17-.25.34-.5.52-.75.04-.05.08-.11.11-.16.12-.16.27-.37.47-.63.1-.14.22-.3.35-.46.13-.17.27-.35.43-.54.13-.17.28-.35.44-.54.19-.24.41-.49.64-.75,0,0,0-.01,0-.01.21-.24.43-.48.67-.74.23-.25.46-.5.69-.74.19-.21.4-.42.62-.63.27-.27.55-.54.84-.81,1.44-1.36,2.94-2.58,4.48-3.68,1.24-.88,2.5-1.67,3.78-2.37,9.29-5.12,19.34-5.57,25.78-.73.67.5,1.3,1.07,1.89,1.69.43.45.83.93,1.18,1.42,5.29,7.15,3.88,18.47-3.08,28.17Z" style="fill: #ec028d;"/>
      <g>
        <ellipse cx="79.6" cy="81.1" rx="4.99" ry="3.69" transform="translate(-26.68 121.32) rotate(-66.26)" style="fill: #ea0e8d;"/>
        <ellipse cx="63.7" cy="94.34" rx="4.99" ry="3.69" transform="translate(-48.3 114.67) rotate(-66.26)" style="fill: #ea0e8d;"/>
        <ellipse cx="87.49" cy="93.35" rx="4.99" ry="3.69" transform="translate(-33.18 135.86) rotate(-66.26)" style="fill: #ea0e8d;"/>
      </g>
    </g>
  </g>
  <text transform="translate(138.8 145.01)" style="fill: #ec028d; font-family: DBPraditX, &apos;DB Pradit X&apos;; font-size: 202.55px;"><tspan x="0" y="0">ส</tspan></text>
  <text transform="translate(209.45 145.01)" style="fill: #ec028d; font-family: DBPraditX, &apos;DB Pradit X&apos;; font-size: 202.55px;"><tspan x="0" y="0">ป</tspan></text>
  <text transform="translate(285.91 145.01)" style="fill: #ec028d; font-family: DBPraditX, &apos;DB Pradit X&apos;; font-size: 202.55px;"><tspan x="0" y="0">ส</tspan></text>
  <path d="M414.6,135.3c0,1.39-.25,2.66-.76,3.82-.51,1.16-1.19,2.16-2.05,3.02-.86.86-1.87,1.53-3.01,2.01-1.14.48-2.35.72-3.62.72h-24.21c-1.27,0-4.88-.06-5.95-.54-1.08-.48-2.01-1.15-2.79-2.01-.78-.86-1.39-1.87-1.83-3.02-.44-1.16-.66-2.43-.66-3.82v-25.57c0-1.45.1-2.77.29-3.94.2-1.17.69-2.14,1.33-3.05.51-.72,1.46-1.72,2.51-2.39,2.55-1.62,3.89-2.35,5.29-3.14l9.59-5.7c.95-.56,1.68-1.07,2.2-1.54.52-.46.91-.97,1.15-1.54.24-.56.38-1.22.42-1.98.03-.76.05-1.72.05-2.87v-3.47c0-.76-.05-1.49-.15-2.18-.1-.69-.33-1.31-.68-1.86-.36-.55-.9-.98-1.61-1.31-.72-.33-1.7-.5-2.93-.5h-4.21c.72.96,1.2,1.93,1.44,2.92.24.99.37,1.97.37,2.92,0,1.59-.29,3.06-.88,4.44-.59,1.37-1.39,2.58-2.42,3.62-1.03,1.04-2.22,1.86-3.57,2.45-1.35.59-2.81.89-4.38.89s-3.03-.3-4.4-.89-2.58-1.41-3.62-2.45c-1.04-1.04-1.87-2.25-2.47-3.62-.6-1.37-.9-2.85-.9-4.44s.29-3.06.88-4.44c.59-1.37,1.39-2.57,2.42-3.59,1.03-1.02,2.23-1.83,3.62-2.43,1.39-.59,2.88-.89,4.48-.89h12.03c2.61,0,4.79.3,6.55.89,1.76.59,3.18,1.44,4.26,2.53,1.08,1.09,1.85,2.43,2.32,4.01.47,1.59.71,3.37.71,5.35v2.03c0,1.49-.11,2.78-.32,3.89-.21,1.11-.49,2.07-.83,2.9-.34.83-.73,1.53-1.15,2.11-.42.58-.86,1.07-1.32,1.46-.72.66-1.58,1.34-2.59,2.03-1.01.69-2.07,1.39-3.18,2.08s-2.23,1.37-3.35,2.03c-1.12.66-2.16,1.26-3.11,1.78-.85.56-1.56,1.05-2.13,1.46-.57.41-1.03.9-1.37,1.46-.34.56-.58,1.26-.71,2.08-.13.83-.2,1.93-.2,3.32v25.37c0,1.22.6,1.83,1.81,1.83h24.21c.42,0,.86-.13,1.32-.4.46-.26.69-.74.69-1.44v-47.72c0-.66-.07-1.3-.22-1.91-.15-.61-.37-1.15-.68-1.61-.31-.46-.7-.83-1.17-1.11-.47-.28-1.03-.42-1.69-.42h-1.03v-5.3h1.03c1.3,0,2.26-.48,2.86-1.44.6-.96.9-2.1.9-3.42v-11.35h7.43v11.35c0,1.68-.44,3.13-1.32,4.34-.88,1.21-1.91,2.25-3.08,3.15,1.3,1.06,2.36,2.17,3.18,3.34.82,1.17,1.22,2.64,1.22,4.39v47.28ZM378.94,80.29c0-.76-.14-1.48-.42-2.16-.28-.68-.66-1.28-1.15-1.81-.49-.53-1.07-.94-1.74-1.24-.67-.3-1.38-.45-2.13-.45s-1.53.15-2.25.45c-.72.3-1.34.71-1.86,1.24-.52.53-.94,1.13-1.25,1.81-.31.68-.46,1.4-.46,2.16,0,.83.15,1.59.46,2.28.31.69.73,1.3,1.25,1.81.52.51,1.14.91,1.86,1.19.72.28,1.47.42,2.25.42,1.53,0,2.82-.54,3.86-1.61,1.04-1.07,1.57-2.44,1.57-4.09Z" style="fill: #ec028d;"/>
  <rect x="421.41" y="137.47" width="7.41" height="7.68" style="fill: #ec028d;"/>
  <g>
    <path d="M35.23,175.98c.03.25.03.49.01.74s-.07.48-.14.71c-.07.23-.17.44-.3.64-.13.2-.29.37-.48.52.05.08.11.18.19.3.08.12.15.26.22.42.07.16.13.34.18.55.05.21.08.44.08.7v12.53h-1.97c-.06-.83-.14-1.61-.25-2.34-.1-.73-.23-1.42-.38-2.08-.13-.55-.29-1.1-.48-1.63s-.41-1.01-.67-1.43c-.26-.42-.55-.75-.88-1.01-.33-.26-.71-.39-1.13-.39h-.98c-.3,0-.57.06-.8.18s-.43.28-.58.48c-.16.2-.28.43-.36.7-.08.26-.12.54-.12.83v1.72c.07-.03.15-.06.24-.07.08-.01.16-.02.22-.02.36,0,.7.07,1,.21.31.14.57.32.79.56.22.24.39.51.52.82.13.31.19.64.19.99,0,.37-.07.72-.2,1.04-.13.32-.31.6-.54.84-.23.24-.49.43-.8.56-.3.14-.63.21-.97.21-.36,0-.7-.07-1-.2-.31-.13-.58-.32-.81-.55-.23-.24-.41-.51-.54-.84-.13-.32-.2-.67-.2-1.06v-4.2c0-.55.11-1.08.32-1.58s.5-.93.87-1.3c.37-.37.8-.67,1.28-.88.49-.22,1.01-.32,1.57-.32h.57c.54,0,1.03.08,1.47.25s.82.37,1.16.62c.33.25.62.51.85.79.23.28.42.53.55.74v-4.17c0-.36-.1-.64-.31-.86-.21-.22-.47-.38-.79-.49-.32-.11-.68-.19-1.06-.23-.39-.04-.76-.06-1.12-.06s-.73.02-1.11.06-.73.13-1.05.26c-.32.13-.58.33-.78.6s-.31.61-.31,1.05h-2.1c0-.52.07-.98.22-1.37.15-.39.35-.73.61-1.01.26-.28.56-.52.9-.7.34-.18.72-.33,1.11-.45.4-.11.81-.19,1.24-.24.43-.04.85-.07,1.26-.07.44,0,.82.02,1.15.06.32.04.61.08.84.13.24.05.44.1.6.15.16.06.3.1.41.12.17-.1.31-.22.4-.34.09-.13.15-.26.19-.4s.06-.28.06-.42c0-.14,0-.27,0-.39h1.94ZM27.67,190.66c0-.25-.08-.46-.24-.61-.16-.15-.35-.23-.58-.23s-.42.08-.58.23c-.16.15-.24.36-.24.61,0,.23.08.43.24.59.16.16.35.25.58.25s.42-.08.58-.25c.16-.16.24-.36.24-.59Z"/>
    <path d="M37.78,172.99c0,.33-.06.63-.18.92s-.28.53-.49.74c-.21.21-.45.38-.73.5-.28.12-.58.19-.9.19s-.62-.06-.9-.19c-.28-.12-.52-.29-.73-.5-.21-.21-.37-.46-.49-.74s-.18-.59-.18-.92.06-.63.18-.91c.12-.28.28-.52.48-.73s.45-.37.73-.49.59-.18.91-.18.63.06.91.18c.28.12.52.28.73.49.2.21.36.45.48.73.12.28.18.59.18.91ZM34.54,172.99c0,.14.03.26.08.38.05.12.12.22.2.3.08.09.18.15.3.21.11.05.24.08.37.08s.25-.03.37-.08c.12-.05.22-.12.3-.21.08-.09.15-.19.2-.3.05-.12.08-.24.08-.38,0-.13-.03-.25-.08-.37s-.12-.22-.2-.31c-.08-.09-.18-.15-.3-.21-.12-.05-.24-.08-.37-.08-.13,0-.26.03-.37.08-.11.05-.21.12-.3.21-.08.09-.15.19-.2.31-.05.12-.08.24-.08.37ZM45.51,193.25v-12.58c0-.37-.08-.66-.25-.88-.16-.22-.38-.39-.64-.51-.26-.12-.56-.2-.89-.24-.33-.04-.67-.06-1.01-.06-.34.01-.67.05-.99.11-.32.06-.6.17-.85.32-.25.15-.45.36-.6.62-.15.26-.23.6-.23,1.01h-2.02c-.02-.49.03-.93.14-1.31.11-.38.27-.71.48-1s.47-.53.77-.73c.3-.2.63-.36.99-.48.36-.12.74-.21,1.15-.27.41-.06.82-.08,1.24-.08.62,0,1.21.06,1.79.17.58.11,1.08.3,1.53.57.44.27.79.62,1.06,1.07s.4,1.01.4,1.68v12.58h-2.06Z"/>
    <path d="M67.38,191.01c0,.79-.21,1.4-.63,1.83-.42.43-1.03.65-1.83.65-.33,0-.64-.06-.94-.16-.3-.11-.56-.27-.79-.48-.23-.21-.41-.47-.54-.78-.13-.31-.2-.66-.2-1.05v-3.07c-.14.03-.32.1-.55.18-.23.09-.49.22-.78.39-.29.17-.61.38-.96.65-.34.27-.7.59-1.06.98-.36.39-.73.84-1.09,1.37-.37.52-.72,1.13-1.06,1.81h-1.81v-10.89c-.09.05-.18.08-.29.1-.1.02-.19.03-.25.03-.36,0-.69-.07-.99-.22-.3-.14-.56-.34-.78-.59s-.39-.53-.51-.85c-.12-.32-.18-.65-.18-1,0-.37.06-.71.19-1.02.13-.31.3-.58.52-.81.22-.23.48-.4.79-.53.31-.13.64-.2,1-.2s.7.06,1,.18c.31.12.58.3.81.52.23.23.41.5.54.81.13.31.2.66.2,1.04v9.59c.21-.28.48-.6.81-.95.33-.35.71-.7,1.15-1.04.44-.34.94-.65,1.49-.92.55-.28,1.15-.48,1.81-.62v-8.49h2.14v8.24c.48.04.9.16,1.25.35.35.19.64.44.87.73.23.29.4.62.51.98.11.36.17.72.17,1.09v2.14ZM55.51,179.87c0-.25-.08-.46-.24-.61-.16-.15-.35-.23-.58-.23s-.42.08-.58.23c-.16.15-.24.36-.24.61,0,.23.08.43.24.6s.35.25.58.25.42-.08.58-.25c.16-.16.24-.36.24-.6ZM65.46,188.66c0-.12-.02-.23-.05-.35-.03-.12-.09-.22-.16-.31-.07-.09-.16-.17-.27-.23-.11-.06-.24-.1-.39-.11v3.49c0,.34.15.5.45.5.15,0,.25-.05.32-.14.06-.09.1-.21.1-.36v-2.48Z"/>
    <path d="M72.12,169.99c-.03.66-.18,1.31-.44,1.92-.26.62-.63,1.17-1.1,1.65-.47.48-1.05.87-1.72,1.16-.68.29-1.44.44-2.29.44h-2.02c-.36,0-.69-.07-1-.2-.3-.13-.57-.32-.79-.55-.22-.23-.39-.51-.52-.83-.13-.32-.19-.66-.19-1.03,0-.35.07-.68.2-1,.13-.31.31-.59.54-.83.23-.24.49-.43.79-.57.3-.14.62-.21.96-.21.36,0,.7.07,1.01.2.31.13.58.32.81.55.23.24.41.51.54.83.13.31.2.66.2,1.03,0,.19-.02.36-.05.5-.03.14-.06.28-.08.43.44-.05.85-.16,1.22-.35.37-.18.71-.43.99-.73.29-.3.53-.66.72-1.06.19-.41.32-.86.4-1.35h1.81ZM63.74,172.51c0,.24.08.45.25.62.17.17.37.26.6.26.12,0,.23-.02.34-.07s.19-.11.27-.18c.08-.08.14-.17.19-.28.05-.11.07-.22.07-.34s-.02-.24-.07-.34-.11-.2-.19-.28c-.08-.08-.17-.14-.27-.19-.1-.05-.22-.07-.34-.07s-.23.02-.34.07c-.1.05-.19.11-.27.19-.08.08-.14.17-.18.28-.04.11-.07.22-.07.34Z"/>
    <path d="M81.42,193.2v-12.53c0-.35-.1-.63-.31-.85-.2-.22-.46-.38-.77-.51-.31-.12-.66-.21-1.03-.25-.38-.04-.74-.07-1.09-.07s-.7.02-1.07.07c-.37.04-.71.13-1.02.25-.31.12-.57.29-.77.51-.2.22-.3.5-.3.85v.55h1.52v1.93h-.37c-.11,0-.24.03-.37.08-.13.06-.26.14-.37.27-.11.12-.21.28-.29.48-.08.2-.12.44-.12.73v8.49h-2.06v-8.07c0-.37.04-.71.11-1.02.07-.31.17-.58.3-.82.13-.23.27-.42.44-.57.16-.15.33-.25.51-.29v-.25h-1.36v-1.52c0-.47.07-.88.22-1.23.14-.36.34-.66.59-.92.25-.26.54-.48.88-.65.34-.17.7-.31,1.09-.41.39-.1.79-.17,1.21-.22.42-.04.83-.06,1.24-.06s.82.02,1.25.07c.42.05.83.13,1.22.24.39.11.76.25,1.1.43.34.18.64.4.9.65.25.26.45.56.6.91.15.35.22.75.22,1.19v12.53h-2.1Z"/>
    <path d="M97.5,190.96c0,.39-.07.74-.21,1.05-.14.31-.32.57-.54.78-.22.21-.48.37-.76.49-.28.11-.57.17-.87.17h-4.16l-3.66-13.92c.28-.26.56-.51.85-.74.28-.23.58-.46.88-.69l3.5,13.37h2.1c.49,0,.73-.26.73-.79v-8.19c-.06.02-.12.04-.19.05-.07.01-.15.02-.26.02-.36,0-.69-.07-1-.21-.3-.14-.57-.32-.79-.56-.22-.24-.4-.51-.53-.82-.13-.31-.19-.64-.19-.99,0-.37.06-.71.19-1.02s.3-.58.53-.81c.22-.23.49-.41.79-.54.3-.13.64-.19,1-.19.34,0,.67.06.98.19s.59.3.82.53c.24.23.43.5.57.81.14.31.22.66.22,1.04v10.97ZM95.74,179.98c0-.25-.08-.46-.24-.61-.16-.15-.35-.23-.58-.23s-.42.08-.58.23c-.16.15-.24.36-.24.61,0,.23.08.43.24.6s.35.25.58.25.42-.08.58-.25c.16-.16.24-.36.24-.6Z"/>
    <path d="M108.84,193.11v-12.53c0-.37-.09-.67-.26-.89-.17-.23-.39-.4-.65-.52-.26-.12-.56-.21-.87-.25-.32-.04-.63-.06-.93-.06s-.61.02-.93.07c-.32.05-.62.15-.89.3-.27.15-.49.36-.67.63-.17.27-.26.62-.26,1.06h-2.02c0-.79.13-1.43.4-1.93.26-.5.62-.9,1.06-1.19s.95-.48,1.53-.59c.58-.11,1.17-.16,1.79-.16s1.21.05,1.79.15c.58.1,1.08.28,1.53.54.44.26.79.62,1.06,1.08.26.46.4,1.04.4,1.76v12.53h-2.06Z"/>
    <path d="M129.95,191.07c0,.79-.21,1.4-.63,1.83-.42.43-1.03.65-1.83.65-.33,0-.64-.06-.94-.16-.3-.11-.56-.27-.79-.48-.23-.21-.41-.47-.54-.78-.13-.31-.2-.66-.2-1.05v-3.07c-.14.03-.32.1-.55.18-.23.09-.49.22-.78.39-.29.17-.61.38-.96.65-.34.27-.7.59-1.06.98-.36.39-.73.84-1.09,1.37-.37.52-.72,1.13-1.06,1.81h-1.81v-10.89c-.09.05-.18.08-.29.1-.1.02-.19.03-.25.03-.36,0-.69-.07-.99-.22-.3-.14-.56-.34-.78-.59s-.39-.53-.51-.85c-.12-.32-.18-.65-.18-1,0-.37.06-.71.19-1.02.13-.31.3-.58.52-.81.22-.23.48-.4.79-.53.31-.13.64-.2,1-.2s.7.06,1,.18c.31.12.58.3.81.52.23.23.41.5.54.81.13.31.2.66.2,1.04v9.59c.21-.28.48-.6.81-.95.33-.35.71-.7,1.15-1.04.44-.34.94-.65,1.49-.92.55-.28,1.15-.48,1.81-.62v-8.49h2.14v8.24c.48.04.9.16,1.25.35.35.19.64.44.87.73.23.29.4.62.51.98.11.36.17.72.17,1.09v2.14ZM118.07,179.93c0-.25-.08-.46-.24-.61-.16-.15-.35-.23-.58-.23s-.42.08-.58.23c-.16.15-.24.36-.24.61,0,.23.08.43.24.6s.35.25.58.25.42-.08.58-.25c.16-.16.24-.36.24-.6ZM128.02,188.72c0-.12-.02-.23-.05-.35-.03-.12-.09-.22-.16-.31-.07-.09-.16-.17-.27-.23-.11-.06-.24-.1-.39-.11v3.49c0,.34.15.5.45.5.15,0,.25-.05.32-.14.06-.09.1-.21.1-.36v-2.48Z"/>
    <path d="M143.94,193.31v-10.05c0-.24-.07-.42-.21-.54-.14-.12-.3-.18-.48-.18-.41,0-.73.25-.95.76l-4.28,10.01h-1.97v-10.86c-.09.04-.17.07-.26.08-.08.01-.15.02-.21.02-.36,0-.7-.07-1-.21-.31-.14-.58-.32-.8-.56-.23-.24-.41-.52-.54-.84-.13-.32-.2-.67-.2-1.04s.07-.71.2-1.02.31-.58.54-.81c.23-.23.5-.4.8-.53.31-.13.64-.2,1-.2s.7.06,1.01.18c.31.12.58.3.81.52.23.23.41.5.54.81.13.31.2.66.2,1.04v8.2l2.59-5.97c.09-.2.2-.36.34-.48.14-.12.28-.21.43-.27-.15-.15-.27-.34-.37-.58-.1-.24-.15-.54-.15-.9s.06-.71.19-1.02c.13-.31.3-.58.53-.81.22-.23.49-.4.79-.53.3-.13.64-.2,1-.2s.7.07,1,.2c.31.13.58.31.81.53.23.23.41.49.54.81.13.31.2.65.2,1.02,0,.34-.06.65-.18.93-.12.28-.28.53-.48.75.07.08.15.16.23.27.08.1.15.22.22.36.07.14.12.3.16.49.04.19.06.4.06.64v9.97h-2.1ZM136.41,179.85c0-.25-.08-.46-.24-.61-.16-.15-.35-.23-.58-.23s-.42.08-.58.23c-.16.15-.24.36-.24.61,0,.23.08.43.24.6s.35.25.58.25.42-.08.58-.25c.16-.16.24-.36.24-.6ZM144.31,179.93c0-.25-.08-.46-.24-.61-.16-.15-.35-.23-.58-.23s-.42.08-.58.23c-.16.15-.24.36-.24.61,0,.23.08.43.24.6s.35.25.58.25.42-.08.58-.25c.16-.16.24-.36.24-.6Z"/>
    <path d="M159.29,193.25c-.06-.83-.14-1.61-.25-2.34-.1-.73-.23-1.42-.38-2.08-.13-.55-.3-1.1-.49-1.63s-.42-1.01-.68-1.43c-.26-.42-.56-.75-.9-1.01-.34-.26-.72-.39-1.14-.39h-.98c-.3,0-.56.06-.79.18-.22.12-.41.28-.57.48-.15.2-.27.43-.35.7-.08.26-.12.54-.12.83v1.7c.14-.05.28-.07.41-.07.36,0,.7.07,1.01.21.31.14.58.32.81.56.23.24.41.51.54.82s.2.64.2.99c0,.37-.07.72-.21,1.04-.14.32-.32.6-.56.84-.23.24-.51.43-.81.56s-.63.21-.97.21c-.36,0-.69-.07-1-.2-.3-.13-.57-.32-.79-.55-.22-.24-.4-.51-.53-.84-.13-.32-.19-.67-.19-1.06v-4.2c0-.55.11-1.08.32-1.58s.5-.93.86-1.3c.36-.37.79-.67,1.27-.88.48-.22,1-.32,1.54-.32h.61c.54,0,1.02.08,1.44.23.42.15.8.34,1.13.58.33.24.61.49.85.77.24.28.44.55.61.82v-4.17c0-.36-.1-.64-.31-.84-.21-.21-.47-.36-.8-.47s-.68-.17-1.08-.2c-.39-.03-.78-.04-1.14-.04-.35,0-.71.01-1.09.04-.38.03-.72.1-1.04.23s-.57.31-.78.56c-.2.25-.31.61-.31,1.06h-2.1c0-.52.07-.98.22-1.37.15-.39.35-.73.61-1.01.26-.28.56-.52.9-.7.34-.18.71-.33,1.1-.45.39-.11.8-.19,1.22-.24s.84-.07,1.25-.07.83.02,1.25.06.84.11,1.24.22c.4.1.77.24,1.12.41.35.17.66.39.92.65.26.26.47.57.62.92.15.36.23.77.23,1.23v12.53h-1.97ZM153.9,190.81c0-.25-.08-.46-.24-.61-.16-.15-.35-.23-.58-.23s-.42.08-.58.23c-.16.15-.24.36-.24.61,0,.23.08.43.24.6.16.16.35.25.58.25s.42-.08.58-.25c.16-.16.24-.36.24-.6Z"/>
    <path d="M166.65,170c-.03.66-.18,1.31-.44,1.92-.26.62-.63,1.17-1.1,1.65-.47.48-1.05.87-1.72,1.16-.68.29-1.44.44-2.29.44h-2.02c-.36,0-.69-.07-1-.2-.3-.13-.57-.32-.79-.55-.22-.23-.39-.51-.52-.83-.13-.32-.19-.66-.19-1.03,0-.35.07-.68.2-1,.13-.31.31-.59.54-.83.23-.24.49-.43.79-.57.3-.14.62-.21.96-.21.36,0,.7.07,1.01.2.31.13.58.32.81.55.23.24.41.51.54.83.13.31.2.66.2,1.03,0,.19-.02.36-.05.5-.03.14-.06.28-.08.43.44-.05.85-.16,1.22-.35.37-.18.71-.43.99-.73.29-.3.53-.66.72-1.06.19-.41.32-.86.4-1.35h1.81ZM158.27,172.53c0,.24.08.45.25.62.17.17.37.26.6.26.12,0,.23-.02.34-.07s.19-.11.27-.18c.08-.08.14-.17.19-.28.05-.11.07-.22.07-.34s-.02-.24-.07-.34-.11-.2-.19-.28c-.08-.08-.17-.14-.27-.19-.1-.05-.22-.07-.34-.07s-.23.02-.34.07c-.1.05-.19.11-.27.19-.08.08-.14.17-.18.28-.04.11-.07.22-.07.34Z"/>
    <path d="M175.82,193.25v-12.53c0-.35-.1-.63-.31-.85-.2-.22-.46-.38-.77-.51-.31-.12-.66-.21-1.03-.25-.38-.04-.74-.07-1.09-.07s-.7.02-1.07.07c-.37.04-.71.13-1.02.25-.31.12-.57.29-.77.51-.2.22-.3.5-.3.85v.55h1.52v1.93h-.37c-.11,0-.24.03-.37.08-.13.06-.26.14-.37.27-.11.12-.21.28-.29.48-.08.2-.12.44-.12.73v8.49h-2.06v-8.07c0-.37.04-.71.11-1.02.07-.31.17-.58.3-.82.13-.23.27-.42.44-.57.16-.15.33-.25.51-.29v-.25h-1.36v-1.52c0-.47.07-.88.22-1.23.14-.36.34-.66.59-.92.25-.26.54-.48.88-.65.34-.17.7-.31,1.09-.41.39-.1.79-.17,1.21-.22.42-.04.83-.06,1.24-.06s.82.02,1.25.07c.42.05.83.13,1.22.24.39.11.76.25,1.1.43.34.18.64.4.9.65.25.26.45.56.6.91.15.35.22.75.22,1.19v12.53h-2.1Z"/>
    <path d="M194.47,190.91c0,.41-.07.78-.22,1.11s-.34.61-.59.83c-.24.23-.52.4-.84.52s-.64.18-.98.18h-4.77c-.37,0-.72-.06-1.03-.17-.31-.11-.58-.28-.8-.51-.22-.23-.4-.5-.53-.83s-.19-.71-.19-1.14v-8.18c-.09.03-.18.05-.27.05-.09,0-.17.01-.23.01-.34.01-.66-.05-.96-.19-.3-.14-.57-.32-.8-.56-.23-.24-.41-.52-.55-.85-.13-.33-.2-.68-.2-1.05s.07-.71.2-1.02c.13-.31.32-.58.55-.81.23-.23.5-.4.8-.53.3-.13.62-.2.96-.2.36,0,.7.06,1.01.18s.59.3.82.52c.23.23.42.5.55.81.13.31.2.66.2,1.04v10.51c0,.14.01.26.04.38.02.11.07.21.13.29.06.08.14.15.24.19.1.04.23.07.38.07h4.1c.31,0,.53-.08.65-.25.12-.16.18-.38.18-.64v-18.12h2.14v18.33ZM184.9,180.1c0-.25-.08-.46-.24-.61-.16-.15-.35-.23-.58-.23s-.42.08-.58.23c-.16.15-.24.36-.24.61,0,.23.08.43.24.6s.35.25.58.25.42-.08.58-.25c.16-.16.24-.36.24-.6Z"/>
    <path d="M208.89,179.05c-.61.08-1.13.14-1.56.16-.43.03-.81.04-1.13.03-.33,0-.63-.03-.89-.06-.27-.03-.55-.06-.83-.1-.29-.03-.61-.07-.95-.09-.35-.03-.77-.04-1.25-.04-.39,0-.71.09-.96.27s-.41.46-.48.83c-.03.15-.05.28-.06.38-.01.1-.02.18-.02.25l5.47.72c.36.04.68.11.94.21.27.1.49.23.67.4.18.17.31.39.4.64.09.26.13.57.13.94v7.12c0,.38-.07.73-.21,1.05-.14.33-.32.61-.56.84-.23.24-.51.42-.81.55-.31.13-.63.2-.97.2-.36,0-.7-.07-1-.21s-.57-.32-.79-.56c-.22-.24-.39-.52-.52-.84-.13-.32-.19-.67-.19-1.04,0-.35.06-.68.19-.99s.3-.58.52-.82c.22-.24.48-.42.79-.56.31-.14.64-.21,1-.21.06,0,.13,0,.22.01.08,0,.16.02.24.03v-4.48c0-.06,0-.11-.02-.17-.01-.05-.02-.1-.04-.14-.02-.04-.04-.06-.08-.06l-7.44-.96c-.02-.17-.03-.37-.03-.6s.01-.45.03-.69c.02-.23.04-.46.07-.68.03-.22.06-.41.09-.56.08-.43.21-.82.4-1.16.19-.34.43-.63.73-.87.3-.24.65-.42,1.06-.55s.87-.19,1.4-.19c.39,0,.75.01,1.06.03.31.02.6.05.87.08.27.03.54.06.79.08s.54.04.84.05c.3.01.64,0,1.01-.01s.8-.05,1.29-.11l.58,1.86ZM206.66,190.75c0-.25-.08-.46-.24-.61-.16-.15-.35-.23-.58-.23s-.42.08-.58.23c-.16.15-.24.36-.24.61,0,.23.08.43.24.6s.35.25.58.25.42-.08.58-.25.24-.36.24-.6Z"/>
    <path d="M221.51,177.7c0,.81-.15,1.53-.44,2.17s-.69,1.18-1.19,1.63c-.5.45-1.08.79-1.75,1.02-.66.24-1.36.35-2.09.35h-1.39c-.36,0-.69-.07-1-.2-.3-.13-.57-.32-.79-.55-.22-.24-.4-.51-.53-.83-.13-.31-.19-.66-.19-1.03,0-.35.06-.68.19-1,.13-.31.3-.59.53-.83.22-.24.49-.43.79-.57.3-.14.64-.21,1-.21s.7.07,1,.2c.31.13.58.32.81.55.23.23.41.51.54.83.13.32.2.66.2,1.03,0,.14-.01.29-.03.43s-.05.28-.09.41c.36-.08.69-.21,1-.41.3-.19.57-.44.79-.73.22-.29.4-.63.53-1.02.13-.38.19-.8.19-1.25h1.93ZM221.51,188.38c0,.8-.15,1.52-.44,2.16s-.69,1.18-1.19,1.63c-.5.45-1.08.79-1.75,1.03-.66.24-1.36.36-2.09.36h-1.39c-.36,0-.69-.07-1-.21s-.57-.33-.79-.57c-.22-.24-.4-.52-.53-.83-.13-.31-.19-.65-.19-1,0-.37.06-.71.19-1.03.13-.31.3-.59.53-.83.22-.24.49-.42.79-.55.3-.13.64-.2,1-.2s.7.07,1,.2c.31.13.58.32.81.55.23.24.41.51.54.83.13.31.2.66.2,1.03,0,.15,0,.3-.02.45-.01.15-.05.28-.11.39.36-.08.69-.21,1-.41.3-.19.57-.44.79-.73.22-.29.4-.63.53-1.02.13-.38.19-.8.19-1.25h1.93ZM213.83,180.23c0,.24.08.45.25.62.17.17.37.26.6.26.12,0,.23-.02.34-.07.1-.04.19-.11.27-.18.08-.08.14-.17.19-.28.05-.11.07-.22.07-.34s-.02-.24-.07-.34c-.05-.11-.11-.2-.19-.28s-.17-.14-.27-.19c-.1-.05-.22-.07-.34-.07s-.23.02-.34.07c-.1.05-.19.11-.27.19-.08.08-.14.17-.18.28-.04.11-.07.22-.07.34ZM213.83,190.91c0,.24.08.45.25.62.17.17.37.26.6.26.12,0,.23-.02.34-.07.1-.04.19-.11.27-.18.08-.08.14-.17.19-.28.05-.11.07-.22.07-.34s-.02-.24-.07-.34c-.05-.11-.11-.2-.19-.28s-.17-.14-.27-.19c-.1-.05-.22-.07-.34-.07s-.23.02-.34.07c-.1.05-.19.11-.27.19-.08.08-.14.17-.18.28-.04.11-.07.22-.07.34Z"/>
    <path d="M234.37,193.22v-12.53c0-.35-.1-.63-.31-.85-.2-.22-.46-.38-.77-.51-.31-.12-.66-.21-1.03-.25-.38-.04-.74-.07-1.09-.07s-.7.02-1.07.07c-.37.04-.71.13-1.02.25-.31.12-.57.29-.77.51-.2.22-.3.5-.3.85v.55h1.52v1.93h-.37c-.11,0-.24.03-.37.08-.13.06-.26.14-.37.27-.11.12-.21.28-.29.48-.08.2-.12.44-.12.73v8.49h-2.06v-8.07c0-.37.04-.71.11-1.02.07-.31.17-.58.3-.82.13-.23.27-.42.44-.57.16-.15.33-.25.51-.29v-.25h-1.36v-1.52c0-.47.07-.88.22-1.23.14-.36.34-.66.59-.92.25-.26.54-.48.88-.65.34-.17.7-.31,1.09-.41.39-.1.79-.17,1.21-.22.42-.04.83-.06,1.24-.06s.82.02,1.25.07c.42.05.83.13,1.22.24.39.11.76.25,1.1.43.34.18.64.4.9.65.25.26.45.56.6.91.15.35.22.75.22,1.19v12.53h-2.1Z"/>
    <path d="M241.75,170.17c-.03.66-.18,1.31-.44,1.92-.26.62-.63,1.17-1.1,1.65-.47.48-1.05.87-1.72,1.16-.68.29-1.44.44-2.29.44h-2.02c-.36,0-.69-.07-1-.2-.3-.13-.57-.32-.79-.55-.22-.23-.39-.51-.52-.83-.13-.32-.19-.66-.19-1.03,0-.35.07-.68.2-1,.13-.31.31-.59.54-.83.23-.24.49-.43.79-.57.3-.14.62-.21.96-.21.36,0,.7.07,1.01.2.31.13.58.32.81.55.23.24.41.51.54.83.13.31.2.66.2,1.03,0,.19-.02.36-.05.5-.03.14-.06.28-.08.43.44-.05.85-.16,1.22-.35.37-.18.71-.43.99-.73.29-.3.53-.66.72-1.06.19-.41.32-.86.4-1.35h1.81ZM233.37,172.69c0,.24.08.45.25.62.17.17.37.26.6.26.12,0,.23-.02.34-.07s.19-.11.27-.18c.08-.08.14-.17.19-.28.05-.11.07-.22.07-.34s-.02-.24-.07-.34-.11-.2-.19-.28c-.08-.08-.17-.14-.27-.19-.1-.05-.22-.07-.34-.07s-.23.02-.34.07c-.1.05-.19.11-.27.19-.08.08-.14.17-.18.28-.04.11-.07.22-.07.34Z"/>
    <path d="M256.66,190.93c0,.79-.21,1.4-.63,1.83-.42.43-1.03.65-1.83.65-.33,0-.64-.06-.94-.16-.3-.11-.56-.27-.79-.48-.23-.21-.41-.47-.54-.78-.13-.31-.2-.66-.2-1.05v-3.07c-.14.03-.32.1-.55.18-.23.09-.49.22-.78.39-.29.17-.61.38-.96.65-.34.27-.7.59-1.06.98-.36.39-.73.84-1.09,1.37-.37.52-.72,1.13-1.06,1.81h-1.81v-10.89c-.09.05-.18.08-.29.1-.1.02-.19.03-.25.03-.36,0-.69-.07-.99-.22-.3-.14-.56-.34-.78-.59s-.39-.53-.51-.85c-.12-.32-.18-.65-.18-1,0-.37.06-.71.19-1.02.13-.31.3-.58.52-.81.22-.23.48-.4.79-.53.31-.13.64-.2,1-.2s.7.06,1,.18c.31.12.58.3.81.52.23.23.41.5.54.81.13.31.2.66.2,1.04v9.59c.21-.28.48-.6.81-.95.33-.35.71-.7,1.15-1.04.44-.34.94-.65,1.49-.92.55-.28,1.15-.48,1.81-.62v-8.49h2.14v8.24c.48.04.9.16,1.25.35.35.19.64.44.87.73.23.29.4.62.51.98.11.36.17.72.17,1.09v2.14ZM244.79,179.79c0-.25-.08-.46-.24-.61-.16-.15-.35-.23-.58-.23s-.42.08-.58.23c-.16.15-.24.36-.24.61,0,.23.08.43.24.6s.35.25.58.25.42-.08.58-.25c.16-.16.24-.36.24-.6ZM254.74,188.58c0-.12-.02-.23-.05-.35-.03-.12-.09-.22-.16-.31-.07-.09-.16-.17-.27-.23-.11-.06-.24-.1-.39-.11v3.49c0,.34.15.5.45.5.15,0,.25-.05.32-.14.06-.09.1-.21.1-.36v-2.48Z"/>
    <path d="M271.81,176.14c.03.25.03.49.01.74s-.07.48-.14.71c-.07.23-.17.44-.3.64-.13.2-.29.37-.48.52.05.08.11.18.19.3.08.12.15.26.22.42.07.16.13.34.18.55.05.21.08.44.08.7v12.53h-1.97c-.06-.83-.14-1.61-.25-2.34-.1-.73-.23-1.42-.38-2.08-.13-.55-.29-1.1-.48-1.63s-.41-1.01-.67-1.43c-.26-.42-.55-.75-.88-1.01-.33-.26-.71-.39-1.13-.39h-.98c-.3,0-.57.06-.8.18s-.43.28-.58.48c-.16.2-.28.43-.36.7-.08.26-.12.54-.12.83v1.72c.07-.03.15-.06.24-.07.08-.01.16-.02.22-.02.36,0,.7.07,1,.21.31.14.57.32.79.56.22.24.39.51.52.82.13.31.19.64.19.99,0,.37-.07.72-.2,1.04-.13.32-.31.6-.54.84-.23.24-.49.43-.8.56-.3.14-.63.21-.97.21-.36,0-.7-.07-1-.2-.31-.13-.58-.32-.81-.55-.23-.24-.41-.51-.54-.84-.13-.32-.2-.67-.2-1.06v-4.2c0-.55.11-1.08.32-1.58s.5-.93.87-1.3c.37-.37.8-.67,1.28-.88.49-.22,1.01-.32,1.57-.32h.57c.54,0,1.03.08,1.47.25s.82.37,1.16.62c.33.25.62.51.85.79.23.28.42.53.55.74v-4.17c0-.36-.1-.64-.31-.86-.21-.22-.47-.38-.79-.49-.32-.11-.68-.19-1.06-.23-.39-.04-.76-.06-1.12-.06s-.73.02-1.11.06-.73.13-1.05.26c-.32.13-.58.33-.78.6s-.31.61-.31,1.05h-2.1c0-.52.07-.98.22-1.37.15-.39.35-.73.61-1.01.26-.28.56-.52.9-.7.34-.18.72-.33,1.11-.45.4-.11.81-.19,1.24-.24.43-.04.85-.07,1.26-.07.44,0,.82.02,1.15.06.32.04.61.08.84.13.24.05.44.1.6.15.16.06.3.1.41.12.17-.1.31-.22.4-.34.09-.13.15-.26.19-.4s.06-.28.06-.42c0-.14,0-.27,0-.39h1.94ZM264.25,190.82c0-.25-.08-.46-.24-.61-.16-.15-.35-.23-.58-.23s-.42.08-.58.23c-.16.15-.24.36-.24.61,0,.23.08.43.24.59.16.16.35.25.58.25s.42-.08.58-.25c.16-.16.24-.36.24-.59Z"/>
    <path d="M270.69,203.35v-3.52c-.1.03-.19.06-.28.06-.08,0-.16.01-.22.01-.34,0-.66-.07-.96-.2-.3-.13-.57-.32-.8-.55-.23-.23-.41-.51-.55-.83-.13-.32-.2-.66-.2-1.03s.07-.71.2-1.02c.13-.31.32-.58.55-.81.23-.23.5-.41.8-.54.3-.13.62-.2.96-.2.36,0,.7.07,1.01.2.31.13.58.31.81.54.23.23.41.5.54.81.13.31.2.65.2,1.02v6.06h-2.06ZM271.02,197.29c0-.25-.08-.46-.24-.61-.16-.15-.35-.23-.58-.23s-.42.08-.58.23c-.16.15-.24.36-.24.61,0,.23.08.43.23.6s.35.25.6.25c.23,0,.42-.08.58-.25.16-.16.24-.36.24-.6Z"/>
    <path d="M287.69,190.62c0,.41-.07.78-.22,1.11s-.33.61-.57.83c-.24.23-.51.4-.82.52-.31.12-.64.18-.98.18h-4.02c-.37,0-.71-.06-1.01-.17-.3-.11-.56-.28-.78-.51-.22-.23-.38-.5-.5-.83-.12-.33-.18-.71-.18-1.14v-4.21c0-.33.03-.63.09-.9.06-.27.15-.53.28-.78.13-.24.3-.47.52-.68.21-.21.48-.42.8-.62l1.77-1.1c.15-.09.26-.17.35-.25.08-.08.15-.17.19-.26.04-.1.06-.21.07-.34,0-.13.01-.29.01-.49v-1.1c0-.12,0-.22-.03-.32-.02-.1-.05-.18-.11-.25-.05-.07-.13-.13-.23-.16s-.24-.06-.41-.06h-.33c.06.14.1.28.13.42.02.14.04.29.04.46,0,.37-.07.7-.21,1-.14.3-.32.55-.56.76-.23.21-.51.38-.81.49-.31.12-.63.17-.97.17-.36,0-.7-.06-1-.17-.31-.12-.58-.28-.81-.49-.23-.21-.41-.47-.54-.76-.13-.3-.2-.63-.2-1,0-.35.07-.68.2-.99s.31-.58.54-.82c.23-.23.5-.42.81-.55.31-.14.64-.21,1-.21h2.39c.58,0,1.05.07,1.44.21.38.14.68.33.91.57s.38.54.48.89c.09.35.14.73.14,1.14v.76c0,.33-.01.61-.04.86s-.06.46-.12.64-.13.33-.22.46c-.09.12-.2.23-.34.32l-2.51,1.64c-.15.1-.28.18-.37.25-.09.07-.16.15-.21.25-.05.09-.08.21-.1.35-.02.14-.03.34-.03.57v4.03c0,.28.05.51.16.67.1.17.31.25.62.25h3.37c.31,0,.53-.08.65-.25.12-.16.18-.38.18-.64v-12.99h2.1v13.2ZM279.96,179.99c0-.23-.07-.43-.22-.6s-.33-.25-.56-.25c-.25,0-.45.08-.6.25s-.23.36-.23.6.08.43.23.6.35.25.6.25c.23,0,.41-.08.56-.25s.22-.36.22-.6Z"/>
    <path d="M302.17,193.17v-12.53c0-.36-.1-.64-.31-.86-.21-.22-.47-.39-.78-.51-.31-.12-.65-.2-1.02-.24s-.72-.06-1.05-.06-.7.02-1.08.06-.72.12-1.04.24-.58.29-.78.51c-.21.22-.31.51-.31.86v.55h1.53v1.93c-.33-.06-.65,0-.93.2-.29.19-.49.55-.59,1.07v6.08c0,.41-.07.79-.2,1.12-.13.34-.31.63-.53.88s-.48.44-.77.58c-.29.14-.61.22-.93.23-.38.01-.73-.05-1.04-.18-.31-.13-.59-.32-.82-.55-.23-.24-.41-.51-.54-.84-.13-.32-.19-.67-.19-1.04-.01-.37.05-.71.2-1.02.15-.31.34-.58.57-.81.23-.23.5-.4.8-.52s.6-.18.9-.17c.06,0,.14,0,.23.02.09.01.18.03.26.05v-3.36s0-.12.02-.25.04-.26.08-.43c.04-.16.09-.33.15-.52.06-.18.15-.36.25-.53s.22-.32.36-.45c.14-.13.31-.22.5-.28v-.25h-1.35v-1.52c0-.47.07-.88.22-1.23.14-.36.34-.66.59-.92.25-.26.55-.48.88-.65.34-.17.7-.31,1.08-.41s.79-.17,1.2-.22.83-.06,1.24-.06.8.02,1.22.06.82.11,1.22.22.77.24,1.11.41c.35.17.65.39.91.65.26.26.47.57.62.92.15.36.23.77.23,1.23v12.53h-2.1ZM294.11,190.66c0-.23-.08-.42-.24-.57-.16-.15-.35-.23-.58-.23-.11,0-.22.02-.32.07-.1.04-.19.1-.26.17-.07.07-.13.15-.18.24-.04.09-.07.18-.07.28,0,.27.08.5.24.67.16.17.35.26.58.26s.42-.08.58-.24c.16-.16.24-.37.24-.65Z"/>
    <path d="M315.56,193.24v-12.53c0-.37-.09-.67-.26-.89-.17-.23-.39-.4-.65-.52-.26-.12-.56-.21-.87-.25-.32-.04-.63-.06-.93-.06s-.61.02-.93.07c-.32.05-.62.15-.89.3-.27.15-.49.36-.67.63-.17.27-.26.62-.26,1.06h-2.02c0-.79.13-1.43.4-1.93.26-.5.62-.9,1.06-1.19s.95-.48,1.53-.59c.58-.11,1.17-.16,1.79-.16s1.21.05,1.79.15c.58.1,1.08.28,1.53.54.44.26.79.62,1.06,1.08.26.46.4,1.04.4,1.76v12.53h-2.06Z"/>
    <path d="M333.5,193.24l-3.58-10.89-3.49,10.89h-1.89v-10.86c-.08.04-.16.07-.24.08-.08.01-.15.02-.21.02-.36,0-.7-.07-1-.22-.31-.14-.57-.34-.79-.59s-.39-.53-.52-.85c-.13-.32-.19-.65-.19-1,0-.37.06-.71.19-1.02.13-.31.3-.58.52-.81.22-.23.48-.4.79-.53.31-.13.64-.2,1-.2s.7.06,1,.18c.31.12.58.3.81.52.23.23.41.5.54.81.13.31.2.66.2,1.04v7.07l3.24-9.8,3.45,9.84v-9.59h2.06v15.89h-1.89ZM324.95,179.78c0-.25-.08-.46-.24-.61-.16-.15-.35-.23-.58-.23s-.42.08-.58.23c-.16.15-.24.36-.24.61,0,.23.08.43.24.6.16.16.35.25.58.25s.42-.08.58-.25c.16-.16.24-.36.24-.6Z"/>
    <path d="M346.18,190.61c0,.37-.07.72-.2,1.04-.13.32-.31.6-.54.84-.23.24-.5.43-.81.56-.31.14-.64.21-1,.21-.34,0-.66-.07-.97-.2-.3-.13-.57-.32-.8-.55-.23-.24-.41-.51-.54-.84-.13-.32-.2-.67-.2-1.06v-13.53h2.1v11.01s.09-.03.16-.04.15,0,.26,0c.36,0,.7.07,1,.21.31.14.58.32.81.55.23.23.41.5.54.81s.2.64.2.99ZM344.45,190.62c0-.25-.08-.46-.24-.61-.16-.15-.35-.23-.58-.23s-.42.08-.58.23c-.16.15-.24.36-.24.61,0,.23.08.43.23.59s.35.25.6.25c.23,0,.42-.08.58-.25s.24-.36.24-.59ZM352.3,190.61c0,.37-.07.72-.2,1.04-.13.32-.31.6-.54.84-.23.24-.5.43-.81.56-.31.14-.64.21-1,.21-.34,0-.66-.07-.96-.2-.3-.13-.57-.32-.8-.55-.23-.24-.41-.51-.55-.84-.13-.32-.2-.67-.2-1.06v-13.53h2.14v11.01c.06-.02.13-.03.21-.04s.15,0,.21,0c.36,0,.69.07,1,.21.3.14.57.32.79.55.22.23.4.5.53.81.13.31.19.64.19.99ZM350.58,190.62c0-.25-.08-.46-.24-.61-.16-.15-.35-.23-.58-.23s-.42.08-.58.23c-.16.15-.24.36-.24.61,0,.23.08.43.23.59.15.16.35.25.6.25.23,0,.42-.08.58-.25.16-.16.24-.36.24-.59Z"/>
    <path d="M366.47,193.25v-10.05c0-.24-.07-.42-.21-.54-.14-.12-.3-.18-.48-.18-.41,0-.73.25-.95.76l-4.28,10.01h-1.97v-10.86c-.09.04-.17.07-.26.08-.08.01-.15.02-.21.02-.36,0-.7-.07-1-.21-.31-.14-.58-.32-.8-.56-.23-.24-.41-.52-.54-.84-.13-.32-.2-.67-.2-1.04s.07-.71.2-1.02.31-.58.54-.81c.23-.23.5-.4.8-.53.31-.13.64-.2,1-.2s.7.06,1.01.18c.31.12.58.3.81.52.23.23.41.5.54.81.13.31.2.66.2,1.04v8.2l2.59-5.97c.09-.2.2-.36.34-.48.14-.12.28-.21.43-.27-.15-.15-.27-.34-.37-.58-.1-.24-.15-.54-.15-.9s.06-.71.19-1.02c.13-.31.3-.58.53-.81.22-.23.49-.4.79-.53.3-.13.64-.2,1-.2s.7.07,1,.2c.31.13.58.31.81.53.23.23.41.49.54.81.13.31.2.65.2,1.02,0,.34-.06.65-.18.93-.12.28-.28.53-.48.75.07.08.15.16.23.27.08.1.15.22.22.36.07.14.12.3.16.49.04.19.06.4.06.64v9.97h-2.1ZM358.95,179.8c0-.25-.08-.46-.24-.61-.16-.15-.35-.23-.58-.23s-.42.08-.58.23c-.16.15-.24.36-.24.61,0,.23.08.43.24.6s.35.25.58.25.42-.08.58-.25c.16-.16.24-.36.24-.6ZM366.84,179.88c0-.25-.08-.46-.24-.61-.16-.15-.35-.23-.58-.23s-.42.08-.58.23c-.16.15-.24.36-.24.61,0,.23.08.43.24.6s.35.25.58.25.42-.08.58-.25c.16-.16.24-.36.24-.6Z"/>
    <path d="M365.82,174.74v-6.76h2.06v6.76h-2.06Z"/>
    <path d="M383.59,190.77c0,.39-.07.74-.21,1.05-.14.31-.32.57-.54.78-.22.21-.48.37-.76.49-.28.11-.57.17-.87.17h-4.16l-3.66-13.92c.28-.26.56-.51.85-.74.28-.23.58-.46.88-.69l3.5,13.37h2.1c.49,0,.73-.26.73-.79v-8.19c-.06.02-.12.04-.19.05-.07.01-.15.02-.26.02-.36,0-.69-.07-1-.21-.3-.14-.57-.32-.79-.56-.22-.24-.4-.51-.53-.82-.13-.31-.19-.64-.19-.99,0-.37.06-.71.19-1.02s.3-.58.53-.81c.22-.23.49-.41.79-.54.3-.13.64-.19,1-.19.34,0,.67.06.98.19s.59.3.82.53c.24.23.43.5.57.81.14.31.22.66.22,1.04v10.97ZM381.82,179.8c0-.25-.08-.46-.24-.61-.16-.15-.35-.23-.58-.23s-.42.08-.58.23c-.16.15-.24.36-.24.61,0,.23.08.43.24.6s.35.25.58.25.42-.08.58-.25c.16-.16.24-.36.24-.6Z"/>
    <path d="M398.45,190.61c0,.41-.07.78-.22,1.11s-.33.61-.57.83c-.24.23-.51.4-.82.52-.31.12-.64.18-.98.18h-4.02c-.37,0-.71-.06-1.01-.17-.3-.11-.56-.28-.78-.51s-.38-.5-.5-.83c-.12-.33-.18-.71-.18-1.14v-4.71c0-.33.04-.61.13-.85.08-.24.2-.45.35-.64.15-.19.32-.36.52-.51.2-.15.42-.31.65-.47l2.1-1.3c.09-.06.16-.13.21-.21.05-.09.08-.19.1-.31.02-.12.03-.26.03-.42v-1.21c0-.12,0-.24,0-.34,0-.11-.03-.19-.07-.27-.04-.07-.12-.13-.22-.17s-.25-.06-.45-.06h-.37c.06.14.1.28.13.42.02.13.04.28.04.43,0,.37-.07.71-.21,1.01-.14.3-.32.56-.56.78-.23.22-.51.39-.81.51-.31.12-.63.18-.97.18-.36,0-.7-.06-1-.18s-.58-.29-.81-.51c-.23-.22-.41-.48-.54-.78-.13-.3-.2-.64-.2-1.01,0-.35.07-.68.2-.99s.31-.58.54-.82c.23-.23.5-.42.81-.55.31-.14.64-.21,1-.21h2.39c.58,0,1.05.06,1.42.19.37.13.67.29.88.5s.37.45.45.72c.08.27.13.56.13.85v.84c0,.33,0,.63-.02.91-.01.28-.04.53-.08.74-.04.22-.1.41-.18.57-.08.16-.18.29-.31.38l-2.01,1.41c-.1.08-.22.16-.37.25-.14.09-.28.2-.41.32s-.24.25-.33.41c-.09.15-.14.32-.14.51v4.33c0,.14.01.26.04.38.02.11.07.21.13.29.06.08.14.15.24.19.1.04.23.07.38.07h3.36c.31,0,.53-.08.65-.25.12-.16.18-.38.18-.64v-8.87c0-.19-.04-.36-.11-.5-.07-.14-.2-.21-.39-.21h-.35v-1.64h.35c.19,0,.32-.07.39-.22.07-.14.11-.31.11-.5v-2.15h2.1v2.15c0,.2-.02.38-.06.53-.04.16-.09.3-.15.42-.06.12-.13.23-.21.32-.08.09-.16.18-.24.25.16.14.31.34.45.58.14.24.21.57.21.97v9.09ZM390.72,179.97c0-.23-.07-.43-.22-.6s-.33-.25-.56-.25c-.25,0-.45.08-.62.25s-.25.36-.25.6c0,.25.08.46.25.61.16.15.37.23.62.23.27-.03.47-.11.6-.25.12-.14.19-.34.19-.59Z"/>
    <path d="M409.96,193.25v-12.53c0-.37-.09-.67-.26-.89s-.39-.4-.65-.52c-.26-.12-.56-.21-.87-.25-.32-.04-.63-.06-.93-.06s-.61.02-.93.07c-.32.05-.62.15-.89.3-.27.15-.49.36-.67.63-.17.27-.26.62-.26,1.06h-2.02c0-.79.13-1.43.4-1.93.26-.5.62-.9,1.06-1.19s.95-.48,1.53-.59c.58-.11,1.17-.16,1.79-.16s1.21.05,1.79.15,1.08.28,1.53.54c.44.26.79.62,1.06,1.08.26.46.4,1.04.4,1.76v12.53h-2.06Z"/>
    <path d="M425.99,193.25v-12.49c0-.28-.03-.52-.1-.7-.07-.19-.16-.34-.27-.46-.11-.12-.24-.21-.39-.28-.15-.07-.3-.13-.47-.18l-2.22,1.47-2.3-1.47c-.44.1-.75.3-.94.6-.19.29-.29.64-.29,1.04v9.42l2.63-3.19c-.5-.19-.89-.5-1.19-.93-.3-.43-.45-.93-.45-1.51,0-.35.06-.68.19-.99.13-.31.3-.58.53-.82.22-.24.49-.42.79-.56.3-.14.64-.21,1-.21.34,0,.67.07.97.21.31.14.58.32.81.56.23.24.42.51.56.82s.21.64.21.99-.05.64-.14.89c-.09.25-.24.5-.44.75l-5.64,7.06h-1.93v-12.49c0-.45.07-.84.2-1.19.13-.35.31-.65.52-.91.21-.26.45-.47.72-.65.26-.18.53-.32.78-.43.26-.11.5-.18.72-.23.22-.05.41-.07.55-.07l2.1,1.39,2.1-1.39c.13,0,.31.02.54.06.23.04.47.11.73.21.26.1.52.23.78.4.26.17.5.38.72.64.21.26.39.56.52.92.13.36.2.77.2,1.25v12.49h-2.1ZM423.32,184.47c0-.23-.08-.42-.24-.57-.16-.15-.35-.23-.58-.23-.25,0-.45.08-.6.23-.15.15-.23.34-.23.57s.08.44.23.62c.15.18.35.27.6.27.55-.04.82-.34.82-.88Z"/>
    <path d="M417.12,173.89v-1.6c0-.57.15-1.08.44-1.51.29-.43.68-.79,1.16-1.08.48-.29,1.02-.5,1.62-.65.6-.14,1.21-.22,1.83-.22s1.23.07,1.83.22c.61.14,1.15.36,1.63.65.48.29.86.65,1.16,1.08.29.43.44.93.44,1.51v1.6h-10.11ZM425.38,172.08c-.06-.29-.2-.54-.42-.75s-.48-.37-.79-.5c-.3-.13-.63-.22-.98-.27-.35-.05-.69-.08-1.02-.08s-.68.03-1.03.09c-.34.06-.66.16-.95.28-.29.13-.54.29-.75.49-.21.2-.35.45-.43.73h6.37Z"/>
  </g>
  <rect x="1" y="158.39" width="451.77" height="1.17" style="fill: #070808;"/>
  <rect x="1" y="22.03" width="451.62" height="186.89" rx="10.43" ry="10.43" style="fill: none; stroke: #000; stroke-miterlimit: 10; stroke-width: 2px;"/>
</svg>